<?xml version="1.0" standalone="no"?>
<!DOCTYPE svg PUBLIC "-//W3C//DTD SVG 20010904//EN"
 "http://www.w3.org/TR/2001/REC-SVG-20010904/DTD/svg10.dtd">
<svg version="1.0" xmlns="http://www.w3.org/2000/svg"
 width="260.000000pt" height="260.000000pt" viewBox="0 0 260.000000 260.000000"
 preserveAspectRatio="xMidYMid meet">
<metadata>
Created by potrace 1.11, written by Peter Selinger 2001-2013
</metadata>
<g transform="translate(0.000000,260.000000) scale(0.100000,-0.100000)"
fill="#000000" stroke="none">
<path d="M474 2575 c-7 -27 10 -55 33 -55 28 0 62 -32 82 -80 29 -68 28 -96
-8 -114 -116 -61 -174 -235 -130 -393 59 -213 259 -286 393 -144 58 60 63 54
186 -219 22 -47 62 -127 89 -178 l51 -92 -88 -148 c-48 -81 -125 -210 -170
-287 -46 -77 -87 -147 -92 -155 -60 -96 -150 -256 -168 -297 -29 -69 -49 -166
-45 -228 2 -53 29 -151 43 -160 7 -4 205 312 431 685 18 30 52 85 76 122 24
37 43 69 43 72 0 9 103 166 109 166 3 0 20 -23 36 -51 17 -28 39 -67 50 -86
11 -18 144 -236 295 -483 l275 -450 22 57 c18 47 21 75 19 148 -2 50 -6 99 -9
110 -18 69 -70 165 -295 548 -139 235 -252 432 -252 438 0 6 15 37 34 69 36
61 114 220 161 330 34 77 70 130 90 130 8 0 24 -14 37 -30 29 -40 111 -80 162
-80 40 0 104 25 137 52 30 25 78 100 93 146 35 109 22 241 -32 327 -31 49 -44
60 -101 87 -100 46 -222 5 -291 -100 -24 -36 -84 -193 -94 -247 -12 -63 -97
-240 -152 -315 -36 -51 -177 -190 -191 -190 -17 0 -168 163 -205 222 -49 76
-88 168 -144 336 -25 78 -59 162 -75 187 -37 58 -98 101 -163 115 -51 10 -53
12 -54 44 -2 51 -39 140 -70 168 -25 22 -81 48 -103 48 -5 0 -11 -11 -15 -25z
m1519 -331 c38 -11 87 -66 101 -115 23 -75 9 -168 -33 -226 -56 -77 -148 -96
-224 -45 -131 87 -100 312 53 381 42 19 57 19 103 5z m-1265 -9 c147 -62 185
-298 61 -386 -95 -67 -220 -13 -260 114 -38 119 12 249 105 276 45 13 52 13
94 -4z"/>
</g>
</svg>
