<svg width="43" height="44" viewBox="0 0 43 44" xmlns="http://www.w3.org/2000/svg"><title></title><path d="M34.82.714c2.215 0 4.108.786 5.68 2.358 1.57 1.572 2.357 3.464 2.357 5.678v26.786c0 2.213-.786 4.106-2.358 5.678s-3.465 2.357-5.68 2.357h-5.244v-16.6h5.552l.837-6.473h-6.39v-4.13c0-1.04.22-1.823.657-2.344.437-.52 1.288-.78 2.553-.78l3.404-.03V7.44c-1.173-.17-2.83-.253-4.968-.253-2.53 0-4.553.745-6.07 2.233-1.515 1.488-2.273 3.59-2.273 6.305v4.772H17.3v6.473h5.58v16.6H8.035c-2.214 0-4.106-.784-5.678-2.356C.786 39.642 0 37.75 0 35.536V8.75c0-2.214.786-4.106 2.358-5.678S5.822.714 8.036.714H34.82z" fill="#6D6D6D" fill-rule="evenodd"/></svg>