<svg width="43" height="44" viewBox="0 0 43 44" xmlns="http://www.w3.org/2000/svg"><title></title><path d="M38.002 36.93V18.85h-3.767c.373 1.172.56 2.39.56 3.656 0 2.343-.597 4.506-1.787 6.487-1.19 1.98-2.81 3.548-4.855 4.7-2.046 1.154-4.278 1.73-6.697 1.73-3.664 0-6.798-1.26-9.402-3.78-2.605-2.52-3.907-5.566-3.907-9.137 0-1.265.186-2.484.558-3.656H4.77v18.08c0 .484.164.89.49 1.215.325.325.73.488 1.213.488H36.3c.465 0 .865-.163 1.2-.488.335-.326.502-.73.502-1.214zm-7.924-14.87c0-2.307-.842-4.274-2.525-5.902-1.683-1.628-3.716-2.44-6.097-2.44-2.362 0-4.385.812-6.068 2.44-1.684 1.628-2.525 3.595-2.525 5.9 0 2.308.84 4.275 2.525 5.902 1.683 1.628 3.706 2.442 6.068 2.442 2.38 0 4.414-.814 6.097-2.442 1.683-1.627 2.525-3.594 2.525-5.9zm7.924-10.045V7.41c0-.52-.186-.97-.558-1.353-.372-.38-.828-.572-1.367-.572h-4.855c-.54 0-.995.19-1.367.572-.372.382-.558.833-.558 1.354v4.605c0 .54.186.995.558 1.367.372.372.828.558 1.367.558h4.855c.54 0 .995-.186 1.367-.558.372-.372.558-.828.558-1.367zm4.855-5.804v31.865c0 1.506-.54 2.8-1.618 3.878-1.08 1.08-2.373 1.618-3.88 1.618H5.497c-1.507 0-2.8-.538-3.88-1.617C.54 40.873 0 39.58 0 38.075V6.21c0-1.506.54-2.8 1.618-3.877 1.08-1.08 2.372-1.62 3.88-1.62H37.36c1.507 0 2.8.54 3.88 1.62 1.078 1.078 1.617 2.37 1.617 3.878z" fill="#6D6D6D" fill-rule="evenodd"/></svg>