<svg width="350" height="350" viewBox="0 0 350 350" xmlns="http://www.w3.org/2000/svg"><title>THUMBS</title><g fill="none" fill-rule="evenodd"><path d="M117.983 217.5c0 .98-.77 1.75-1.75 1.75h-3.5c-.946 0-1.75-.77-1.75-1.75V214h-1.75v3.5c0 1.925 1.575 3.5 3.5 3.5h3.5c1.924 0 3.5-1.575 3.5-3.5v-3.08c0-1.505-.56-2.695-1.436-3.535l-6.474-6.44c-.56-.525-.84-1.295-.84-2.17V200c0-.98.804-1.75 1.75-1.75h3.5c.98 0 1.75.77 1.75 1.75v3.5h1.75V200c0-1.925-1.576-3.5-3.5-3.5h-3.5c-1.925 0-3.5 1.575-3.5 3.5v2.275c0 1.505.56 2.695 1.434 3.535l6.475 6.44c.56.525.84 1.295.84 2.17v3.08zm16.52-21h-1.75v10.675h-7V196.5h-1.75V221h1.75v-12.075h7V221h1.75v-24.5zm13.02 21c0 .98-.77 1.75-1.75 1.75h-3.5c-.946 0-1.75-.77-1.75-1.75V200c0-.98.804-1.75 1.75-1.75h3.5c.98 0 1.75.77 1.75 1.75v17.5zm1.75-17.5c0-1.925-1.576-3.5-3.5-3.5h-3.5c-1.925 0-3.5 1.575-3.5 3.5v17.5c0 1.925 1.575 3.5 3.5 3.5h3.5c1.924 0 3.5-1.575 3.5-3.5V200zm21.56-3.5l-3.745 21.98-3.956-21.98h-1.505l-3.954 21.98-3.71-21.98h-1.75l4.2 24.5h2.554l3.395-19.46 3.395 19.46h2.555l4.2-24.5h-1.68zm26.25 0h-2.66l-4.655 17.045-4.655-17.045h-2.66V221h1.75v-21.665l5.005 18.165h1.12l5.005-18.165V221h1.75v-24.5zm13.02 21c0 .98-.77 1.75-1.75 1.75h-3.5c-.946 0-1.75-.77-1.75-1.75V200c0-.98.804-1.75 1.75-1.75h3.5c.98 0 1.75.77 1.75 1.75v17.5zm1.75-17.5c0-1.925-1.576-3.5-3.5-3.5h-3.5c-1.925 0-3.5 1.575-3.5 3.5v17.5c0 1.925 1.575 3.5 3.5 3.5h3.5c1.924 0 3.5-1.575 3.5-3.5V200zm14.77 6.825V200c0-1.925-1.54-3.5-3.5-3.5h-7V221h1.75v-10.675h4.48l2.31 10.675h1.96l-2.59-10.78c1.505-.42 2.59-1.785 2.59-3.395zm-1.75 0c0 .98-.77 1.75-1.75 1.75h-5.25V198.25h5.25c.98 0 1.75.77 1.75 1.75v6.825zm14.77 12.425h-7v-10.325h5.25v-1.75h-5.25v-8.925h7v-1.75h-8.75V221h8.75v-1.75z" fill="#E8E8E8"/><g stroke="#E8E8E8" stroke-width="3"><path d="M173.5 165v-40M193 145.5h-40"/></g></g></svg>