<?xml version="1.0" encoding="UTF-8" standalone="no"?>
<svg width="43px" height="44px" viewBox="0 0 43 44" version="1.1" xmlns="http://www.w3.org/2000/svg" xmlns:xlink="http://www.w3.org/1999/xlink">
    <!-- Generator: Sketch 3.7.2 (28276) - http://www.bohemiancoding.com/sketch -->
    <title></title>
    <desc>Created with Sketch.</desc>
    <defs></defs>
    <g id="Page-1" stroke="none" stroke-width="1" fill="none" fill-rule="evenodd">
        <g id="Artboard-1-Copy-2" transform="translate(-582.000000, -4092.000000)" fill="#6D6D6D">
            <path d="M617.785714,4106.16295 C616.744042,4106.62798 615.618682,4106.9442 614.409598,4107.11161 C615.674485,4106.36756 616.539432,4105.2794 617.004464,4103.8471 C615.795381,4104.55395 614.549114,4105.02827 613.265625,4105.27009 C612.130947,4104.0424 610.70797,4103.42857 608.996652,4103.42857 C607.37834,4103.42857 605.997216,4104.00055 604.853237,4105.14453 C603.709258,4106.28851 603.137277,4107.66963 603.137277,4109.28795 C603.137277,4109.82738 603.183779,4110.27381 603.276786,4110.62723 C600.87722,4110.49702 598.626499,4109.89249 596.524554,4108.81362 C594.422609,4107.73474 592.636912,4106.29316 591.167411,4104.48884 C590.627973,4105.4189 590.358259,4106.40476 590.358259,4107.44643 C590.358259,4109.56697 591.204605,4111.19456 592.897321,4112.32924 C592.023061,4112.31064 591.093011,4112.06883 590.107143,4111.60379 L590.107143,4111.6596 C590.107143,4113.05469 590.572168,4114.29631 591.502232,4115.38449 C592.432296,4116.47266 593.576258,4117.14695 594.934152,4117.40737 C594.394715,4117.55618 593.920389,4117.63058 593.511161,4117.63058 C593.269344,4117.63058 592.906624,4117.59338 592.422991,4117.51897 C592.813618,4118.69085 593.506505,4119.65811 594.501674,4120.42076 C595.496843,4121.18341 596.626854,4121.57403 597.891741,4121.59263 C595.733992,4123.26675 593.306561,4124.10379 590.609375,4124.10379 C590.125742,4124.10379 589.660717,4124.07589 589.214286,4124.02009 C591.967276,4125.76861 594.962037,4126.64286 598.198661,4126.64286 C600.282004,4126.64286 602.23511,4126.31269 604.058036,4125.65234 C605.880961,4124.992 607.443446,4124.10845 608.745536,4123.00167 C610.047626,4121.8949 611.168336,4120.62073 612.107701,4119.17913 C613.047066,4117.73753 613.744603,4116.23085 614.200335,4114.65904 C614.656066,4113.08723 614.883929,4111.5201 614.883929,4109.95759 C614.883929,4109.62277 614.874628,4109.37165 614.856027,4109.20424 C616.027908,4108.36718 617.00446,4107.35343 617.785714,4106.16295 L617.785714,4106.16295 Z M624.928571,4100.75 L624.928571,4127.53571 C624.928571,4129.74927 624.142679,4131.64192 622.570871,4133.21373 C620.999062,4134.78554 619.10641,4135.57143 616.892857,4135.57143 L590.107143,4135.57143 C587.89359,4135.57143 586.000938,4134.78554 584.429129,4133.21373 C582.857321,4131.64192 582.071429,4129.74927 582.071429,4127.53571 L582.071429,4100.75 C582.071429,4098.53645 582.857321,4096.6438 584.429129,4095.07199 C586.000938,4093.50018 587.89359,4092.71429 590.107143,4092.71429 L616.892857,4092.71429 C619.10641,4092.71429 620.999062,4093.50018 622.570871,4095.07199 C624.142679,4096.6438 624.928571,4098.53645 624.928571,4100.75 L624.928571,4100.75 Z" id=""></path>
        </g>
    </g>
</svg>